<?xml version="1.0" encoding="utf-8"?>
<!-- Generator: Adobe Illustrator 16.0.3, SVG Export Plug-In . SVG Version: 6.00 Build 0)  -->
<!DOCTYPE svg PUBLIC "-//W3C//DTD SVG 1.1//EN" "http://www.w3.org/Graphics/SVG/1.1/DTD/svg11.dtd">
<svg version="1.1" id="Layer_1" xmlns="http://www.w3.org/2000/svg" xmlns:xlink="http://www.w3.org/1999/xlink" x="0px" y="0px"
	 width="145.917px" height="71px" viewBox="0 0 145.917 71" enable-background="new 0 0 145.917 71" xml:space="preserve">
<g>
	<g>
		<g enable-background="new    ">
			<path fill="#E5E5E4" d="M14.688,29.052h3.332c0.952,0,1.88-0.068,2.788-0.204c0.906-0.136,1.734-0.396,2.482-0.782
				c0.748-0.385,1.348-0.929,1.802-1.632c0.453-0.702,0.68-1.62,0.68-2.754c0-1.45-0.578-2.652-1.734-3.604
				c-1.156-0.951-2.573-1.428-4.25-1.428c-1.587,0-2.902,0.432-3.944,1.292c-1.043,0.862-1.724,1.928-2.04,3.196l-11.22-2.312
				c0.544-2.084,1.36-3.864,2.448-5.338c1.088-1.473,2.38-2.662,3.876-3.569c1.496-0.906,3.162-1.575,4.998-2.007
				c1.836-0.43,3.774-0.646,5.814-0.646c2.13,0,4.182,0.262,6.154,0.782c1.972,0.521,3.706,1.338,5.202,2.447
				c1.496,1.112,2.686,2.506,3.57,4.183c0.884,1.678,1.326,3.672,1.326,5.983c0,2.676-0.704,4.965-2.108,6.868
				c-1.405,1.904-3.445,3.128-6.12,3.672v0.204c1.45,0.182,2.73,0.612,3.842,1.292c1.11,0.681,2.051,1.52,2.822,2.517
				c0.77,0.997,1.36,2.131,1.768,3.399c0.408,1.27,0.612,2.607,0.612,4.013c0,2.403-0.465,4.511-1.394,6.323
				c-0.93,1.814-2.176,3.321-3.74,4.522s-3.4,2.098-5.508,2.686c-2.108,0.589-4.341,0.885-6.698,0.885
				c-4.308,0-8.014-0.997-11.118-2.992c-3.106-1.994-5.157-5.145-6.154-9.452L12.92,44.08c0.362,1.723,1.099,3.083,2.21,4.079
				c1.11,0.998,2.754,1.496,4.93,1.496c2.221,0,3.864-0.578,4.93-1.733c1.064-1.156,1.598-2.641,1.598-4.454
				c0-1.36-0.284-2.414-0.85-3.162c-0.567-0.748-1.304-1.303-2.21-1.666c-0.907-0.362-1.927-0.578-3.06-0.646
				c-1.133-0.067-2.267-0.102-3.4-0.102h-2.38V29.052z"/>
		</g>
		
			<rect x="78.632" y="12.462" fill="#279CC5" stroke="#279CC5" stroke-width="8.0723" stroke-linecap="round" stroke-linejoin="round" stroke-miterlimit="10" width="61.531" height="43.584"/>
		
			<polygon fill="#208AAE" stroke="#208AAE" stroke-width="8.0723" stroke-linecap="round" stroke-linejoin="round" stroke-miterlimit="10" points="
			78.632,14.769 109.398,38.387 140.164,14.769 		"/>
		
			<polygon fill="#32AEDA" stroke="#32AEDA" stroke-width="8.0723" stroke-linecap="round" stroke-linejoin="round" stroke-miterlimit="10" points="
			78.632,12.462 109.398,36.08 140.164,12.462 		"/>
		
			<line fill="none" stroke="#208AAE" stroke-width="1.7298" stroke-linecap="round" stroke-linejoin="round" stroke-miterlimit="10" x1="96.482" y1="34.255" x2="76.494" y2="58.537"/>
		
			<line fill="none" stroke="#208AAE" stroke-width="1.7298" stroke-linecap="round" stroke-linejoin="round" stroke-miterlimit="10" x1="121.854" y1="34.255" x2="141.841" y2="58.537"/>
	</g>
</g>
</svg>
