<?xml version="1.0" encoding="utf-8"?>
<!-- Generator: Adobe Illustrator 16.0.3, SVG Export Plug-In . SVG Version: 6.00 Build 0)  -->
<!DOCTYPE svg PUBLIC "-//W3C//DTD SVG 1.1//EN" "http://www.w3.org/Graphics/SVG/1.1/DTD/svg11.dtd">
<svg version="1.1" id="Layer_1" xmlns="http://www.w3.org/2000/svg" xmlns:xlink="http://www.w3.org/1999/xlink" x="0px" y="0px"
	 width="157px" height="44.121px" viewBox="0 0 157 44.121" enable-background="new 0 0 157 44.121" xml:space="preserve">
<g>
	<path d="M4.625,18.208v14.11H0.073V0.455h12.062c3.096,0,5.098,0.773,6.646,2.095c1.912,1.639,3.141,4.05,3.141,6.781
		s-1.229,5.144-3.141,6.783c-1.548,1.319-3.55,2.094-6.646,2.094H4.625z M11.908,13.884c2.185,0,3.368-0.546,4.188-1.412
		c0.773-0.819,1.274-1.911,1.274-3.141c0-1.229-0.5-2.321-1.274-3.141c-0.82-0.864-2.003-1.411-4.188-1.411H4.625v9.104H11.908z"/>
	<path d="M37.125,14.748c-0.5-0.137-1.001-0.182-1.685-0.182c-2.23,0-4.597,1.548-5.78,3.596v14.156h-4.325V10.924h4.188v2.459
		c1.047-1.457,3.278-2.913,6.418-2.913c0.456,0,1.184,0.045,1.684,0.136L37.125,14.748z"/>
	<path d="M49.369,10.47c6.328,0,11.061,4.778,11.061,11.151s-4.733,11.153-11.061,11.153c-6.327,0-11.061-4.78-11.061-11.153
		S43.042,10.47,49.369,10.47z M49.369,28.677c3.96,0,6.737-3.141,6.737-7.056c0-3.914-2.776-7.055-6.737-7.055
		s-6.737,3.141-6.737,7.055C42.632,25.536,45.409,28.677,49.369,28.677z"/>
	<path d="M68.85,43.243h-4.324V10.924h4.188v1.958c1.957-1.684,4.278-2.412,6.691-2.412c2.002,0,3.778,0.5,5.234,1.365
		c3.232,1.912,5.508,5.508,5.508,9.786c0,4.279-2.231,7.829-5.463,9.741c-1.457,0.865-3.459,1.412-5.371,1.412
		c-2.549,0-4.734-0.82-6.464-2.322V43.243z M68.85,25.627c1.457,1.957,3.687,3.05,5.872,3.05c4.142,0,7.101-3.231,7.101-7.056
		c0-3.732-2.731-7.055-6.873-7.055c-2.595,0-4.78,1.319-6.1,3.05V25.627z"/>
	<path d="M156.927,32.318h-5.781L140.541,21.85v10.469h-4.324V0h4.324v19.117l8.922-8.193h6.1l-10.697,9.65L156.927,32.318z"/>
	<path d="M109.088,22.531c0.045-0.409,0.045-0.729,0.045-0.91c0-6.326-4.325-11.151-10.287-11.151
		c-6.054,0-10.424,4.733-10.424,11.151c0,6.419,4.825,11.153,11.062,11.153c4.37,0,7.418-1.958,9.012-4.007l-2.822-2.685
		c-1.229,1.364-2.959,2.912-6.145,2.912c-3.733,0-6.692-2.867-6.919-6.464h0.001c-0.037-0.251-0.064-0.507-0.064-0.766
		c0-1.28,0.169-2.106,0.432-2.875h-0.003c0.728-2.776,3.232-4.644,6.008-4.644c2.549,0,5.007,1.912,5.644,4.644h-8.929v3.641
		H109.088z"/>
	<path d="M132.075,22.531c0.045-0.409,0.045-0.729,0.045-0.91c0-6.326-4.325-11.151-10.287-11.151
		c-6.055,0-10.424,4.733-10.424,11.151c0,6.419,4.825,11.153,11.061,11.153c4.37,0,7.418-1.958,9.013-4.007l-2.822-2.685
		c-1.229,1.364-2.958,2.912-6.146,2.912c-3.732,0-6.691-2.867-6.919-6.464l0,0c-0.038-0.251-0.064-0.507-0.064-0.766
		c0-1.28,0.169-2.106,0.43-2.875h-0.001c0.728-2.776,3.232-4.644,6.008-4.644c2.549,0,5.007,1.912,5.645,4.644h-8.93v3.641H132.075z
		"/>
	<path d="M90.242,5.036l3.097,1.819c1.417-1.33,3.275-2.116,5.365-2.116c2.149,0,4.015,0.784,5.399,2.11l2.956-1.919
		c-2.047-2.273-4.984-3.654-8.354-3.654C95.304,1.276,92.333,2.695,90.242,5.036z"/>
	<path d="M113.607,5.036l3.097,1.819c1.417-1.33,3.276-2.116,5.366-2.116c2.148,0,4.015,0.784,5.399,2.11l2.955-1.919
		c-2.047-2.273-4.984-3.654-8.354-3.654C118.669,1.276,115.699,2.695,113.607,5.036z"/>
</g>
<g>
	<path fill="#2AAAE1" d="M4.625,19.208v14.11H0.073V1.455h12.062c3.096,0,5.098,0.773,6.646,2.095
		c1.912,1.639,3.141,4.05,3.141,6.781s-1.229,5.144-3.141,6.783c-1.548,1.319-3.55,2.094-6.646,2.094H4.625z M11.908,14.884
		c2.185,0,3.368-0.546,4.188-1.412c0.773-0.819,1.274-1.911,1.274-3.141c0-1.229-0.5-2.321-1.274-3.141
		c-0.82-0.864-2.003-1.411-4.188-1.411H4.625v9.104H11.908z"/>
	<path fill="#2AAAE1" d="M37.125,15.748c-0.5-0.137-1.001-0.182-1.685-0.182c-2.23,0-4.597,1.548-5.78,3.596v14.156h-4.325V11.924
		h4.188v2.459c1.047-1.457,3.278-2.913,6.418-2.913c0.456,0,1.184,0.045,1.684,0.136L37.125,15.748z"/>
	<path fill="#2AAAE1" d="M49.369,11.47c6.328,0,11.061,4.778,11.061,11.151s-4.733,11.153-11.061,11.153
		c-6.327,0-11.061-4.78-11.061-11.153S43.042,11.47,49.369,11.47z M49.369,29.677c3.96,0,6.737-3.141,6.737-7.056
		c0-3.914-2.776-7.055-6.737-7.055s-6.737,3.141-6.737,7.055C42.632,26.536,45.409,29.677,49.369,29.677z"/>
	<path fill="#2AAAE1" d="M68.85,44.243h-4.324V11.924h4.188v1.958c1.957-1.684,4.278-2.412,6.691-2.412
		c2.002,0,3.778,0.5,5.234,1.365c3.232,1.912,5.508,5.508,5.508,9.786c0,4.279-2.231,7.829-5.463,9.741
		c-1.457,0.865-3.459,1.412-5.371,1.412c-2.549,0-4.734-0.82-6.464-2.322V44.243z M68.85,26.627c1.457,1.957,3.687,3.05,5.872,3.05
		c4.142,0,7.101-3.231,7.101-7.056c0-3.732-2.731-7.055-6.873-7.055c-2.595,0-4.78,1.319-6.1,3.05V26.627z"/>
	<path fill="#2AAAE1" d="M156.927,33.318h-5.781L140.541,22.85v10.469h-4.324V1h4.324v19.117l8.922-8.193h6.1l-10.697,9.65
		L156.927,33.318z"/>
	<path fill="#2AAAE1" d="M109.088,23.531c0.045-0.409,0.045-0.729,0.045-0.91c0-6.326-4.325-11.151-10.287-11.151
		c-6.054,0-10.424,4.733-10.424,11.151c0,6.419,4.825,11.153,11.062,11.153c4.37,0,7.418-1.958,9.012-4.007l-2.822-2.685
		c-1.229,1.364-2.959,2.912-6.145,2.912c-3.733,0-6.692-2.867-6.919-6.464h0.001c-0.037-0.251-0.064-0.507-0.064-0.766
		c0-1.28,0.169-2.106,0.432-2.875h-0.003c0.728-2.776,3.232-4.644,6.008-4.644c2.549,0,5.007,1.912,5.644,4.644h-8.929v3.641
		H109.088z"/>
	<path fill="#2AAAE1" d="M132.075,23.531c0.045-0.409,0.045-0.729,0.045-0.91c0-6.326-4.325-11.151-10.287-11.151
		c-6.055,0-10.424,4.733-10.424,11.151c0,6.419,4.825,11.153,11.061,11.153c4.37,0,7.418-1.958,9.013-4.007l-2.822-2.685
		c-1.229,1.364-2.958,2.912-6.146,2.912c-3.732,0-6.691-2.867-6.919-6.464l0,0c-0.038-0.251-0.064-0.507-0.064-0.766
		c0-1.28,0.169-2.106,0.43-2.875h-0.001c0.728-2.776,3.232-4.644,6.008-4.644c2.549,0,5.007,1.912,5.645,4.644h-8.93v3.641H132.075z
		"/>
	<path fill="#92D4ED" d="M90.242,6.036l3.097,1.819c1.417-1.33,3.275-2.116,5.365-2.116c2.149,0,4.015,0.784,5.399,2.11l2.956-1.919
		c-2.047-2.273-4.984-3.654-8.354-3.654C95.304,2.276,92.333,3.695,90.242,6.036z"/>
	<path fill="#92D4ED" d="M113.607,6.036l3.097,1.819c1.417-1.33,3.276-2.116,5.366-2.116c2.148,0,4.015,0.784,5.399,2.11
		l2.955-1.919c-2.047-2.273-4.984-3.654-8.354-3.654C118.669,2.276,115.699,3.695,113.607,6.036z"/>
</g>
</svg>
