<?xml version="1.0" encoding="utf-8"?>
<!-- Generator: Adobe Illustrator 16.0.3, SVG Export Plug-In . SVG Version: 6.00 Build 0)  -->
<!DOCTYPE svg PUBLIC "-//W3C//DTD SVG 1.1//EN" "http://www.w3.org/Graphics/SVG/1.1/DTD/svg11.dtd">
<svg version="1.1" id="Layer_1" xmlns="http://www.w3.org/2000/svg" xmlns:xlink="http://www.w3.org/1999/xlink" x="0px" y="0px"
	 width="183px" height="52px" viewBox="0 0 183 52" enable-background="new 0 0 183 52" xml:space="preserve">
<g opacity="0.21">
	<path fill="#FFFFFF" d="M5.692,22.646v16.39H0.405V2.025h14.011c3.595,0,5.922,0.899,7.719,2.433
		c2.22,1.903,3.648,4.705,3.648,7.878c0,3.172-1.428,5.974-3.648,7.877c-1.797,1.534-4.124,2.433-7.719,2.433H5.692z M14.152,17.623
		c2.538,0,3.912-0.635,4.864-1.64c0.899-0.951,1.48-2.22,1.48-3.647s-0.581-2.697-1.48-3.648c-0.952-1.005-2.326-1.64-4.864-1.64
		h-8.46v10.575H14.152z"/>
	<path fill="#FFFFFF" d="M43.442,18.627c-0.582-0.158-1.164-0.211-1.957-0.211c-2.59,0-5.339,1.797-6.714,4.177v16.442h-5.023
		v-24.85h4.864v2.855c1.216-1.691,3.807-3.384,7.455-3.384c0.529,0,1.375,0.053,1.956,0.158L43.442,18.627z"/>
	<path fill="#FFFFFF" d="M57.664,13.657c7.349,0,12.848,5.552,12.848,12.953c0,7.402-5.499,12.954-12.848,12.954
		S44.816,34.013,44.816,26.61C44.816,19.209,50.315,13.657,57.664,13.657z M57.664,34.806c4.6,0,7.825-3.647,7.825-8.195
		c0-4.547-3.225-8.194-7.825-8.194s-7.825,3.647-7.825,8.194C49.839,31.158,53.064,34.806,57.664,34.806z"/>
	<path fill="#FFFFFF" d="M80.292,51.725h-5.022V14.186h4.864v2.273c2.273-1.955,4.97-2.802,7.772-2.802
		c2.326,0,4.388,0.582,6.08,1.586c3.754,2.221,6.398,6.397,6.398,11.367c0,4.971-2.591,9.094-6.345,11.314
		c-1.692,1.005-4.018,1.64-6.239,1.64c-2.96,0-5.499-0.952-7.508-2.696V51.725z M80.292,31.264c1.692,2.273,4.283,3.542,6.82,3.542
		c4.812,0,8.248-3.754,8.248-8.195c0-4.335-3.172-8.194-7.983-8.194c-3.014,0-5.551,1.532-7.085,3.542V31.264z"/>
	<path fill="#FFFFFF" d="M182.595,39.035h-6.715l-12.318-12.16v12.16h-5.023V1.497h5.023v22.205l10.363-9.517h7.084l-12.425,11.209
		L182.595,39.035z"/>
	<path fill="#FFFFFF" d="M127.029,27.668c0.053-0.476,0.053-0.846,0.053-1.058c0-7.349-5.023-12.953-11.948-12.953
		c-7.032,0-12.108,5.498-12.108,12.953s5.604,12.954,12.848,12.954c5.076,0,8.617-2.273,10.468-4.653l-3.278-3.119
		c-1.427,1.586-3.437,3.384-7.137,3.384c-4.335,0-7.772-3.331-8.037-7.508h0.001c-0.043-0.293-0.075-0.589-0.075-0.891
		c0-1.486,0.196-2.445,0.501-3.339h-0.004c0.846-3.226,3.754-5.393,6.979-5.393c2.961,0,5.816,2.221,6.557,5.393h-10.372v4.229
		H127.029z"/>
	<path fill="#FFFFFF" d="M153.728,27.668c0.053-0.476,0.053-0.846,0.053-1.058c0-7.349-5.023-12.953-11.949-12.953
		c-7.032,0-12.107,5.498-12.107,12.953s5.604,12.954,12.848,12.954c5.076,0,8.618-2.273,10.469-4.653l-3.278-3.119
		c-1.427,1.586-3.437,3.384-7.138,3.384c-4.335,0-7.772-3.331-8.036-7.508l0,0c-0.044-0.293-0.075-0.589-0.075-0.891
		c0-1.486,0.196-2.445,0.5-3.339h-0.001c0.846-3.226,3.753-5.393,6.979-5.393c2.961,0,5.816,2.221,6.556,5.393h-10.373v4.229
		H153.728z"/>
	<path fill="#FFFFFF" d="M105.139,7.347l3.597,2.114c1.646-1.547,3.805-2.459,6.232-2.459c2.496,0,4.663,0.91,6.271,2.451
		l3.433-2.229c-2.378-2.641-5.79-4.243-9.704-4.243C111.018,2.98,107.568,4.627,105.139,7.347z"/>
	<path fill="#FFFFFF" d="M132.277,7.347l3.598,2.114c1.646-1.547,3.805-2.459,6.232-2.459c2.496,0,4.663,0.91,6.271,2.451
		l3.433-2.229c-2.378-2.641-5.79-4.243-9.703-4.243C138.157,2.98,134.707,4.627,132.277,7.347z"/>
</g>
<g>
	<path d="M5.692,21.467v16.39H0.405V0.847h14.011c3.595,0,5.922,0.899,7.719,2.433c2.22,1.903,3.648,4.705,3.648,7.878
		c0,3.172-1.428,5.974-3.648,7.877c-1.797,1.534-4.124,2.433-7.719,2.433H5.692z M14.152,16.444c2.538,0,3.912-0.635,4.864-1.64
		c0.899-0.951,1.48-2.22,1.48-3.647s-0.581-2.697-1.48-3.648c-0.952-1.005-2.326-1.64-4.864-1.64h-8.46v10.575H14.152z"/>
	<path d="M43.442,17.448c-0.582-0.158-1.164-0.211-1.957-0.211c-2.59,0-5.339,1.797-6.714,4.177v16.442h-5.023v-24.85h4.864v2.855
		c1.216-1.691,3.807-3.384,7.455-3.384c0.529,0,1.375,0.053,1.956,0.158L43.442,17.448z"/>
	<path d="M57.664,12.479c7.349,0,12.848,5.552,12.848,12.953c0,7.402-5.499,12.954-12.848,12.954s-12.848-5.552-12.848-12.954
		C44.816,18.03,50.315,12.479,57.664,12.479z M57.664,33.627c4.6,0,7.825-3.647,7.825-8.195c0-4.547-3.225-8.194-7.825-8.194
		s-7.825,3.647-7.825,8.194C49.839,29.979,53.064,33.627,57.664,33.627z"/>
	<path d="M80.292,50.546h-5.022V13.007h4.864v2.273c2.273-1.955,4.97-2.802,7.772-2.802c2.326,0,4.388,0.582,6.08,1.586
		c3.754,2.221,6.398,6.397,6.398,11.367c0,4.971-2.591,9.094-6.345,11.314c-1.692,1.005-4.018,1.64-6.239,1.64
		c-2.96,0-5.499-0.952-7.508-2.696V50.546z M80.292,30.085c1.692,2.273,4.283,3.542,6.82,3.542c4.812,0,8.248-3.754,8.248-8.195
		c0-4.335-3.172-8.194-7.983-8.194c-3.014,0-5.551,1.532-7.085,3.542V30.085z"/>
	<path d="M182.595,37.856h-6.715l-12.318-12.16v12.16h-5.023V0.318h5.023v22.205l10.363-9.517h7.084l-12.425,11.209L182.595,37.856z
		"/>
	<path d="M127.029,26.489c0.053-0.476,0.053-0.846,0.053-1.058c0-7.349-5.023-12.953-11.948-12.953
		c-7.032,0-12.108,5.498-12.108,12.953s5.604,12.954,12.848,12.954c5.076,0,8.617-2.273,10.468-4.653l-3.278-3.119
		c-1.427,1.586-3.437,3.384-7.137,3.384c-4.335,0-7.772-3.331-8.037-7.508h0.001c-0.043-0.293-0.075-0.589-0.075-0.891
		c0-1.486,0.196-2.445,0.501-3.339h-0.004c0.846-3.226,3.754-5.393,6.979-5.393c2.961,0,5.816,2.221,6.557,5.393h-10.372v4.229
		H127.029z"/>
	<path d="M153.728,26.489c0.053-0.476,0.053-0.846,0.053-1.058c0-7.349-5.023-12.953-11.949-12.953
		c-7.032,0-12.107,5.498-12.107,12.953s5.604,12.954,12.848,12.954c5.076,0,8.618-2.273,10.469-4.653l-3.278-3.119
		c-1.427,1.586-3.437,3.384-7.138,3.384c-4.335,0-7.772-3.331-8.036-7.508l0,0c-0.044-0.293-0.075-0.589-0.075-0.891
		c0-1.486,0.196-2.445,0.5-3.339h-0.001c0.846-3.226,3.753-5.393,6.979-5.393c2.961,0,5.816,2.221,6.556,5.393h-10.373v4.229
		H153.728z"/>
	<path d="M105.139,6.168l3.597,2.114c1.646-1.547,3.805-2.459,6.232-2.459c2.496,0,4.663,0.91,6.271,2.451l3.433-2.229
		c-2.378-2.641-5.79-4.243-9.704-4.243C111.018,1.802,107.568,3.448,105.139,6.168z"/>
	<path d="M132.277,6.168l3.598,2.114c1.646-1.547,3.805-2.459,6.232-2.459c2.496,0,4.663,0.91,6.271,2.451l3.433-2.229
		c-2.378-2.641-5.79-4.243-9.703-4.243C138.157,1.802,134.707,3.448,132.277,6.168z"/>
</g>
<g>
	<path fill="#222222" d="M5.692,22.162v16.39H0.405V1.542h14.011c3.595,0,5.922,0.899,7.719,2.433
		c2.22,1.903,3.648,4.705,3.648,7.878c0,3.172-1.428,5.974-3.648,7.877c-1.797,1.534-4.124,2.433-7.719,2.433H5.692z M14.152,17.14
		c2.538,0,3.912-0.635,4.864-1.64c0.899-0.951,1.48-2.22,1.48-3.647s-0.581-2.697-1.48-3.648c-0.952-1.005-2.326-1.64-4.864-1.64
		h-8.46V17.14H14.152z"/>
	<path fill="#222222" d="M43.442,18.144c-0.582-0.158-1.164-0.211-1.957-0.211c-2.59,0-5.339,1.797-6.714,4.177v16.442h-5.023
		v-24.85h4.864v2.855c1.216-1.691,3.807-3.384,7.455-3.384c0.529,0,1.375,0.053,1.956,0.158L43.442,18.144z"/>
	<path fill="#222222" d="M57.664,13.174c7.349,0,12.848,5.552,12.848,12.953c0,7.402-5.499,12.954-12.848,12.954
		s-12.848-5.552-12.848-12.954C44.816,18.726,50.315,13.174,57.664,13.174z M57.664,34.322c4.6,0,7.825-3.647,7.825-8.195
		c0-4.547-3.225-8.194-7.825-8.194s-7.825,3.647-7.825,8.194C49.839,30.675,53.064,34.322,57.664,34.322z"/>
	<path fill="#222222" d="M80.292,51.241h-5.022V13.702h4.864v2.273c2.273-1.955,4.97-2.802,7.772-2.802
		c2.326,0,4.388,0.582,6.08,1.586c3.754,2.221,6.398,6.397,6.398,11.367c0,4.971-2.591,9.094-6.345,11.314
		c-1.692,1.005-4.018,1.64-6.239,1.64c-2.96,0-5.499-0.952-7.508-2.696V51.241z M80.292,30.78c1.692,2.273,4.283,3.542,6.82,3.542
		c4.812,0,8.248-3.754,8.248-8.195c0-4.335-3.172-8.194-7.983-8.194c-3.014,0-5.551,1.532-7.085,3.542V30.78z"/>
	<path fill="#222222" d="M182.595,38.552h-6.715l-12.318-12.16v12.16h-5.023V1.014h5.023v22.205l10.363-9.517h7.084l-12.425,11.209
		L182.595,38.552z"/>
	<path fill="#222222" d="M127.029,27.185c0.053-0.476,0.053-0.846,0.053-1.058c0-7.349-5.023-12.953-11.948-12.953
		c-7.032,0-12.108,5.498-12.108,12.953s5.604,12.954,12.848,12.954c5.076,0,8.617-2.273,10.468-4.653l-3.278-3.119
		c-1.427,1.586-3.437,3.384-7.137,3.384c-4.335,0-7.772-3.331-8.037-7.508h0.001c-0.043-0.293-0.075-0.589-0.075-0.891
		c0-1.486,0.196-2.445,0.501-3.339h-0.004c0.846-3.226,3.754-5.393,6.979-5.393c2.961,0,5.816,2.221,6.557,5.393h-10.372v4.229
		H127.029z"/>
	<path fill="#222222" d="M153.728,27.185c0.053-0.476,0.053-0.846,0.053-1.058c0-7.349-5.023-12.953-11.949-12.953
		c-7.032,0-12.107,5.498-12.107,12.953s5.604,12.954,12.848,12.954c5.076,0,8.618-2.273,10.469-4.653l-3.278-3.119
		c-1.427,1.586-3.437,3.384-7.138,3.384c-4.335,0-7.772-3.331-8.036-7.508l0,0c-0.044-0.293-0.075-0.589-0.075-0.891
		c0-1.486,0.196-2.445,0.5-3.339h-0.001c0.846-3.226,3.753-5.393,6.979-5.393c2.961,0,5.816,2.221,6.556,5.393h-10.373v4.229
		H153.728z"/>
	<path fill="#222222" d="M105.139,6.863l3.597,2.114c1.646-1.547,3.805-2.459,6.232-2.459c2.496,0,4.663,0.91,6.271,2.451
		l3.433-2.229c-2.378-2.641-5.79-4.243-9.704-4.243C111.018,2.497,107.568,4.144,105.139,6.863z"/>
	<path fill="#222222" d="M132.277,6.863l3.598,2.114c1.646-1.547,3.805-2.459,6.232-2.459c2.496,0,4.663,0.91,6.271,2.451
		l3.433-2.229c-2.378-2.641-5.79-4.243-9.703-4.243C138.157,2.497,134.707,4.144,132.277,6.863z"/>
</g>
</svg>
