<?xml version="1.0" encoding="utf-8"?>
<!-- Generator: Adobe Illustrator 16.0.3, SVG Export Plug-In . SVG Version: 6.00 Build 0)  -->
<!DOCTYPE svg PUBLIC "-//W3C//DTD SVG 1.1//EN" "http://www.w3.org/Graphics/SVG/1.1/DTD/svg11.dtd">
<svg version="1.1" id="Layer_1" xmlns="http://www.w3.org/2000/svg" xmlns:xlink="http://www.w3.org/1999/xlink" x="0px" y="0px"
	 width="200px" height="1000px" viewBox="0 0 200 1000" enable-background="new 0 0 200 1000" xml:space="preserve">
<path fill="#CACACA" d="M18.482,14.233c4.38-0.562,7.812-5.657,7.812-11.864H22.43c0.043-0.674,0.073-1.358,0.073-2.056H6.583
	c0,0.698,0.03,1.381,0.073,2.056H2.691c0,6.257,3.487,11.378,7.919,11.872c0.294,0.336,0.597,0.642,0.913,0.902h-0.164v1.603h1.592
	v4.008h3.184v-4.008h1.592v-1.603h-0.164C17.882,14.88,18.188,14.573,18.482,14.233z M24.617,3.973
	c-0.409,3.834-2.265,6.967-4.716,8.174c1.167-2.144,2.014-4.971,2.387-8.174H24.617z M4.368,3.973h2.431
	c0.376,3.235,1.238,6.088,2.423,8.239C6.703,11.058,4.785,7.879,4.368,3.973z"/>
<g>
	<path fill="#CACACA" d="M17.728,22.532c0,0.302-0.247,0.549-0.549,0.549h-5.271c-0.302,0-0.549-0.247-0.549-0.549v-1.64
		c0-0.302,0.247-0.549,0.549-0.549h5.271c0.302,0,0.549,0.247,0.549,0.549V22.532z"/>
</g>
<g>
	<path fill="#CACACA" d="M19.32,25c0,0.253-0.208,0.46-0.46,0.46h-8.633c-0.253,0-0.46-0.208-0.46-0.46v-2.078
		c0-0.253,0.208-0.46,0.46-0.46h8.633c0.253,0,0.46,0.208,0.46,0.46V25z"/>
</g>
<path fill="none" stroke="#FFFFFF" stroke-width="0.6968" stroke-linecap="round" stroke-linejoin="round" stroke-miterlimit="10" d="
	M8.014,1.307C8.39,4.543,8.79,7.395,9.976,9.547"/>
<g>
	<g>
		<path fill="#CACACA" d="M25.168,61.205c0,0.275-0.225,0.5-0.5,0.5H4.418c-0.275,0-0.5-0.225-0.5-0.5v-24.03
			c0-0.275,0.225-0.5,0.5-0.5h15.25c0.275,0,0.651,0.167,0.836,0.37l4.327,4.76c0.185,0.204,0.336,0.595,0.336,0.87L25.168,61.205
			L25.168,61.205z"/>
	</g>
	
		<line fill="none" stroke="#FFFFFF" stroke-width="1.0271" stroke-linecap="round" stroke-linejoin="round" stroke-miterlimit="10" x1="5.668" y1="39.987" x2="17.043" y2="39.987"/>
	
		<line fill="none" stroke="#FFFFFF" stroke-width="1.0271" stroke-linecap="round" stroke-linejoin="round" stroke-miterlimit="10" x1="5.668" y1="42.685" x2="14.71" y2="42.685"/>
	
		<line fill="none" stroke="#FFFFFF" stroke-width="1.0271" stroke-linecap="round" stroke-linejoin="round" stroke-miterlimit="10" x1="5.668" y1="45.383" x2="17.043" y2="45.383"/>
	
		<line fill="none" stroke="#FFFFFF" stroke-width="1.0271" stroke-linecap="round" stroke-linejoin="round" stroke-miterlimit="10" x1="5.668" y1="48.081" x2="14.71" y2="48.081"/>
	
		<line fill="none" stroke="#FFFFFF" stroke-width="1.0271" stroke-linecap="round" stroke-linejoin="round" stroke-miterlimit="10" x1="5.668" y1="50.778" x2="17.043" y2="50.778"/>
	
		<line fill="none" stroke="#FFFFFF" stroke-width="1.0271" stroke-linecap="round" stroke-linejoin="round" stroke-miterlimit="10" x1="5.668" y1="53.477" x2="14.71" y2="53.477"/>
	<g>
		<path fill="#FFFFFF" d="M19.577,37.987c0-0.275,0.15-0.333,0.334-0.128l4.173,4.632c0.184,0.205,0.109,0.372-0.166,0.372h-3.842
			c-0.275,0-0.5-0.225-0.5-0.5L19.577,37.987L19.577,37.987z"/>
	</g>
</g>
<g>
	<g>
		<path fill="#CACACA" d="M26.285,86.847c0,1.1-0.9,2-2,2H4.701c-1.1,0-2-0.9-2-2v-12.28c0-1.1,0.9-2,2-2h19.583c1.1,0,2,0.9,2,2
			L26.285,86.847L26.285,86.847z"/>
	</g>
	
		<line fill="none" stroke="#FFFFFF" stroke-width="0.8804" stroke-linecap="round" stroke-linejoin="round" stroke-miterlimit="10" x1="16.451" y1="76.983" x2="23.201" y2="76.983"/>
	
		<line fill="none" stroke="#FFFFFF" stroke-width="0.8804" stroke-linecap="round" stroke-linejoin="round" stroke-miterlimit="10" x1="16.451" y1="79.983" x2="23.201" y2="79.983"/>
	
		<line fill="none" stroke="#FFFFFF" stroke-width="0.8804" stroke-linecap="round" stroke-linejoin="round" stroke-miterlimit="10" x1="16.451" y1="82.983" x2="23.201" y2="82.983"/>
	<path id="user-icon" fill="#FFFFFF" d="M11.41,81.45c-1.039-0.24-2.006-0.45-1.538-1.333c1.426-2.688,0.378-4.125-1.128-4.125
		c-1.535,0-2.557,1.493-1.127,4.125c0.482,0.889-0.521,1.098-1.538,1.333C5.04,81.689,5.12,82.236,5.12,83.23h7.248
		C12.368,82.236,12.448,81.689,11.41,81.45z"/>
</g>
<g id="Layer_1_1_">
	<g>
		<g>
			<path fill="#CACACA" d="M14.652,101.459c-6.5,0-11.8,5.31-11.8,11.861c0,6.552,5.3,11.861,11.8,11.861s11.916-5.31,11.916-11.861
				C26.568,106.77,21.153,101.459,14.652,101.459z M24.023,117.031h-3.141c0.17-0.87,0.275-1.808,0.296-2.816h3.506
				C24.598,115.202,24.37,116.146,24.023,117.031z M24.685,112.432h-3.557c-0.074-0.965-0.225-1.882-0.434-2.744h3.36
				C24.385,110.552,24.602,111.473,24.685,112.432z M23.16,107.905h-3.016c-0.716-1.904-1.738-3.414-2.862-4.362
				C19.743,104.213,21.829,105.795,23.16,107.905z M15.597,104.224c1.091,0.506,2.056,1.841,2.723,3.681h-2.723V104.224z
				 M15.597,109.688h3.239c0.192,0.855,0.328,1.776,0.396,2.744h-3.634L15.597,109.688L15.597,109.688z M19.276,114.215
				c-0.019,1.019-0.118,1.958-0.278,2.816h-3.401v-2.816H19.276z M4.597,114.215h3.47c0.021,1.008,0.125,1.947,0.295,2.816H5.258
				C4.911,116.146,4.684,115.202,4.597,114.215z M10.081,114.215h3.678v2.816h-3.413C10.193,116.173,10.1,115.235,10.081,114.215z
				 M10.124,112.432c0.064-0.967,0.194-1.889,0.377-2.744h3.258v2.744H10.124z M13.759,104.177v3.729h-2.763
				C11.66,106.005,12.635,104.644,13.759,104.177z M11.947,103.558c-1.117,0.949-2.132,2.453-2.845,4.347H6.121
				C7.443,105.81,9.509,104.235,11.947,103.558z M5.227,109.688h3.325c-0.209,0.861-0.36,1.778-0.434,2.744H4.596
				C4.679,111.473,4.896,110.552,5.227,109.688z M6.17,118.814h2.668c0.62,1.806,1.556,3.198,2.62,4.119
				C9.264,122.201,7.405,120.73,6.17,118.814z M10.79,118.814h2.97v3.689C12.511,122.097,11.448,120.803,10.79,118.814z
				 M15.597,122.467v-3.653h2.938C17.869,120.747,16.813,122.024,15.597,122.467z M17.765,122.954
				c1.073-0.921,2.019-2.319,2.642-4.139h2.705C21.866,120.747,19.985,122.227,17.765,122.954z"/>
		</g>
	</g>
</g>
<g id="Layer_2">
</g>
<g>
	<path fill="#CACACA" d="M16.629,148.564l-0.27-0.08l-10.363-3.067v2.89l10.634,3.148l0,0l10.634-3.148v-2.89L16.9,148.484
		L16.629,148.564z"/>
	<path fill="#CACACA" d="M33.572,142.558l-16.943-5.015l0,0l-16.943,5.015l16.943,5.014l0,0l11.492-3.401l0.792-0.234l0.476-0.142
		l0.792-0.234l0.476-0.141l0.792-0.191c0-0.014-0.006-0.026-0.008-0.04L33.572,142.558L33.572,142.558z"/>
	
		<line fill="none" stroke="#CACACA" stroke-width="0.7158" stroke-linecap="round" stroke-linejoin="round" stroke-miterlimit="10" x1="28.542" y1="143.64" x2="28.542" y2="157.167"/>
	
		<line fill="none" stroke="#CACACA" stroke-width="0.7158" stroke-linecap="round" stroke-linejoin="round" stroke-miterlimit="10" x1="30.56" y1="143.162" x2="30.56" y2="157.167"/>
	
		<line fill="none" stroke="#CACACA" stroke-width="0.7158" stroke-linecap="round" stroke-linejoin="round" stroke-miterlimit="10" x1="29.551" y1="143.64" x2="29.551" y2="158.121"/>
</g>
<g>
	<rect x="6.523" y="171.943" fill="#FFFFFF" width="16.374" height="19.228"/>
	<path fill="#CACACA" d="M21.168,170.225H8.253c-1.755,0-3.176,1.42-3.176,3.176v16.313l0,0c0,1.754,1.421,3.176,3.176,3.176h12.915
		c1.755,0,3.176-1.422,3.176-3.176l0,0v-16.313C24.344,171.645,22.923,170.225,21.168,170.225z M11.091,189.606
		c0,0.434-0.353,0.788-0.789,0.788H8.067c-0.436,0-0.789-0.354-0.789-0.788v-0.79c0-0.435,0.353-0.788,0.789-0.788h2.235
		c0.436,0,0.789,0.353,0.789,0.788V189.606z M11.091,185.479c0,0.436-0.353,0.789-0.789,0.789H8.067
		c-0.436,0-0.789-0.353-0.789-0.789v-0.788c0-0.435,0.353-0.789,0.789-0.789h2.235c0.436,0,0.789,0.354,0.789,0.789V185.479z
		 M11.091,181.353c0,0.436-0.353,0.791-0.789,0.791H8.067c-0.436,0-0.789-0.354-0.789-0.791v-0.787c0-0.436,0.353-0.789,0.789-0.789
		h2.235c0.436,0,0.789,0.353,0.789,0.789V181.353z M16.563,189.606c0,0.434-0.354,0.788-0.789,0.788h-2.233
		c-0.438,0-0.791-0.354-0.791-0.788v-0.79c0-0.435,0.353-0.788,0.791-0.788h2.233c0.436,0,0.789,0.353,0.789,0.788V189.606z
		 M16.563,185.479c0,0.436-0.354,0.789-0.789,0.789h-2.233c-0.438,0-0.791-0.353-0.791-0.789v-0.788
		c0-0.435,0.353-0.789,0.791-0.789h2.233c0.436,0,0.789,0.354,0.789,0.789V185.479z M16.563,181.353
		c0,0.436-0.354,0.791-0.789,0.791h-2.233c-0.438,0-0.791-0.354-0.791-0.791v-0.787c0-0.436,0.353-0.789,0.791-0.789h2.233
		c0.436,0,0.789,0.353,0.789,0.789V181.353z M22.037,189.606c0,0.434-0.353,0.788-0.788,0.788h-2.234
		c-0.437,0-0.789-0.354-0.789-0.788v-0.79c0-0.435,0.353-0.788,0.789-0.788h2.234c0.436,0,0.788,0.353,0.788,0.788V189.606z
		 M22.037,185.479c0,0.436-0.353,0.789-0.788,0.789h-2.234c-0.437,0-0.789-0.353-0.789-0.789v-0.788
		c0-0.435,0.353-0.789,0.789-0.789h2.234c0.436,0,0.788,0.354,0.788,0.789V185.479z M22.037,181.353
		c0,0.436-0.353,0.791-0.788,0.791h-2.234c-0.437,0-0.789-0.354-0.789-0.791v-0.787c0-0.436,0.353-0.789,0.789-0.789h2.234
		c0.436,0,0.788,0.353,0.788,0.789V181.353z M22.066,177.082c0,0.436-0.354,0.789-0.789,0.789H8.067
		c-0.436,0-0.789-0.353-0.789-0.789V173.6c0-0.436,0.353-0.789,0.789-0.789h13.209c0.436,0,0.789,0.353,0.789,0.789L22.066,177.082
		L22.066,177.082z"/>
</g>
<g>
	<rect x="6.523" y="204.09" fill="#FFFFFF" width="16.374" height="19.228"/>
	<path fill="#CACACA" d="M21.168,202.372H8.253c-1.755,0-3.176,1.42-3.176,3.176v16.313l0,0c0,1.754,1.421,3.176,3.176,3.176h12.915
		c1.755,0,3.176-1.422,3.176-3.176l0,0v-16.313C24.344,203.792,22.923,202.372,21.168,202.372z M11.091,221.753
		c0,0.434-0.353,0.788-0.789,0.788H8.067c-0.436,0-0.789-0.354-0.789-0.788v-0.79c0-0.435,0.353-0.788,0.789-0.788h2.235
		c0.436,0,0.789,0.353,0.789,0.788V221.753z M11.091,217.626c0,0.436-0.353,0.789-0.789,0.789H8.067
		c-0.436,0-0.789-0.353-0.789-0.789v-0.788c0-0.435,0.353-0.789,0.789-0.789h2.235c0.436,0,0.789,0.354,0.789,0.789V217.626z
		 M11.091,213.5c0,0.436-0.353,0.791-0.789,0.791H8.067c-0.436,0-0.789-0.354-0.789-0.791v-0.787c0-0.436,0.353-0.789,0.789-0.789
		h2.235c0.436,0,0.789,0.353,0.789,0.789V213.5z M16.563,221.753c0,0.434-0.354,0.788-0.789,0.788h-2.233
		c-0.438,0-0.791-0.354-0.791-0.788v-0.79c0-0.435,0.353-0.788,0.791-0.788h2.233c0.436,0,0.789,0.353,0.789,0.788V221.753z
		 M16.563,217.626c0,0.436-0.354,0.789-0.789,0.789h-2.233c-0.438,0-0.791-0.353-0.791-0.789v-0.788
		c0-0.435,0.353-0.789,0.791-0.789h2.233c0.436,0,0.789,0.354,0.789,0.789V217.626z M16.563,213.5c0,0.436-0.354,0.791-0.789,0.791
		h-2.233c-0.438,0-0.791-0.354-0.791-0.791v-0.787c0-0.436,0.353-0.789,0.791-0.789h2.233c0.436,0,0.789,0.353,0.789,0.789V213.5z
		 M22.037,221.753c0,0.434-0.353,0.788-0.788,0.788h-2.234c-0.437,0-0.789-0.354-0.789-0.788v-0.79c0-0.435,0.353-0.788,0.789-0.788
		h2.234c0.436,0,0.788,0.353,0.788,0.788V221.753z M22.037,217.626c0,0.436-0.353,0.789-0.788,0.789h-2.234
		c-0.437,0-0.789-0.353-0.789-0.789v-0.788c0-0.435,0.353-0.789,0.789-0.789h2.234c0.436,0,0.788,0.354,0.788,0.789V217.626z
		 M22.037,213.5c0,0.436-0.353,0.791-0.788,0.791h-2.234c-0.437,0-0.789-0.354-0.789-0.791v-0.787c0-0.436,0.353-0.789,0.789-0.789
		h2.234c0.436,0,0.788,0.353,0.788,0.789V213.5z M22.066,209.229c0,0.436-0.354,0.789-0.789,0.789H8.067
		c-0.436,0-0.789-0.353-0.789-0.789v-3.482c0-0.436,0.353-0.789,0.789-0.789h13.209c0.436,0,0.789,0.353,0.789,0.789L22.066,209.229
		L22.066,209.229z"/>
</g>
<g>
	<polygon fill="#27A9E0" points="9.127,251.492 11.282,258.124 18.255,258.124 12.614,262.223 14.768,268.854 9.127,264.756 
		3.486,268.854 5.641,262.223 0,258.124 6.973,258.124 	"/>
	<polygon fill="#27A9E0" points="29.563,251.492 31.719,258.124 38.691,258.124 33.05,262.223 35.205,268.854 29.563,264.756 
		23.922,268.854 26.077,262.223 20.436,258.124 27.409,258.124 	"/>
	<polygon fill="#27A9E0" points="50,251.492 52.155,258.124 59.128,258.124 53.486,262.223 55.641,268.854 50,264.756 
		44.358,268.854 46.514,262.223 40.872,258.124 47.845,258.124 	"/>
	<polygon fill="#27A9E0" points="70.436,251.492 72.591,258.124 79.564,258.124 73.923,262.223 76.077,268.854 70.436,264.756 
		64.794,268.854 66.95,262.223 61.308,258.124 68.281,258.124 	"/>
	<polygon fill="#27A9E0" points="90.872,251.492 93.027,258.124 100,258.124 94.359,262.223 96.513,268.854 90.872,264.756 
		85.23,268.854 87.386,262.223 81.745,258.124 88.718,258.124 	"/>
</g>
<g>
	<polygon fill="#27A9E0" points="9.127,274.057 11.282,280.688 18.255,280.688 12.614,284.787 14.768,291.419 9.127,287.32 
		3.486,291.419 5.641,284.787 0,280.688 6.973,280.688 	"/>
	<polygon fill="#27A9E0" points="29.563,274.057 31.719,280.688 38.691,280.688 33.05,284.787 35.205,291.419 29.563,287.32 
		23.922,291.419 26.077,284.787 20.436,280.688 27.409,280.688 	"/>
	<polygon fill="#27A9E0" points="50,274.057 52.155,280.688 59.128,280.688 53.486,284.787 55.641,291.419 50,287.32 
		44.358,291.419 46.514,284.787 40.872,280.688 47.845,280.688 	"/>
	<polygon fill="#27A9E0" points="70.436,274.057 72.591,280.688 79.564,280.688 73.923,284.787 76.077,291.419 70.436,287.32 
		64.794,291.419 66.95,284.787 61.308,280.688 68.281,280.688 	"/>
	<polygon fill="#CECECE" points="90.872,274.057 93.027,280.688 100,280.688 94.359,284.787 96.513,291.419 90.872,287.32 
		85.23,291.419 87.386,284.787 81.745,280.688 88.718,280.688 	"/>
	<polygon fill="#27A9E0" points="90.872,274.057 90.872,287.32 85.23,291.419 87.386,284.787 81.745,280.688 88.718,280.688 	"/>
</g>
<g>
	<polygon fill="#27A9E0" points="9.127,296.621 11.282,303.253 18.255,303.253 12.614,307.351 14.768,313.983 9.127,309.884 
		3.486,313.983 5.641,307.351 0,303.253 6.973,303.253 	"/>
	<polygon fill="#27A9E0" points="29.563,296.621 31.719,303.253 38.691,303.253 33.05,307.351 35.205,313.983 29.563,309.884 
		23.922,313.983 26.077,307.351 20.436,303.253 27.409,303.253 	"/>
	<polygon fill="#27A9E0" points="50,296.621 52.155,303.253 59.128,303.253 53.486,307.351 55.641,313.983 50,309.884 
		44.358,313.983 46.514,307.351 40.872,303.253 47.845,303.253 	"/>
	<polygon fill="#27A9E0" points="70.436,296.621 72.591,303.253 79.564,303.253 73.923,307.351 76.077,313.983 70.436,309.884 
		64.794,313.983 66.95,307.351 61.308,303.253 68.281,303.253 	"/>
	<polygon fill="#CECECE" points="90.872,296.621 93.027,303.253 100,303.253 94.359,307.351 96.513,313.983 90.872,309.884 
		85.23,313.983 87.386,307.351 81.745,303.253 88.718,303.253 	"/>
</g>
<g>
	<polygon fill="#27A9E0" points="9.127,319.185 11.282,325.817 18.255,325.817 12.614,329.916 14.768,336.547 9.127,332.449 
		3.486,336.547 5.641,329.916 0,325.817 6.973,325.817 	"/>
	<polygon fill="#27A9E0" points="29.563,319.185 31.719,325.817 38.691,325.817 33.05,329.916 35.205,336.547 29.563,332.449 
		23.922,336.547 26.077,329.916 20.436,325.817 27.409,325.817 	"/>
	<polygon fill="#27A9E0" points="50,319.185 52.155,325.817 59.128,325.817 53.486,329.916 55.641,336.547 50,332.449 
		44.358,336.547 46.514,329.916 40.872,325.817 47.845,325.817 	"/>
	<polygon fill="#CECECE" points="70.436,319.185 72.591,325.817 79.564,325.817 73.923,329.916 76.077,336.547 70.436,332.449 
		64.794,336.547 66.95,329.916 61.308,325.817 68.281,325.817 	"/>
	<polygon fill="#CECECE" points="90.872,319.185 93.027,325.817 100,325.817 94.359,329.916 96.513,336.547 90.872,332.449 
		85.23,336.547 87.386,329.916 81.745,325.817 88.718,325.817 	"/>
	<polygon fill="#27A9E0" points="70.436,319.185 70.436,332.449 64.794,336.547 66.95,329.916 61.308,325.817 68.281,325.817 	"/>
</g>
<g>
	<polygon fill="#27A9E0" points="9.127,341.75 11.282,348.381 18.255,348.381 12.614,352.48 14.768,359.112 9.127,355.013 
		3.486,359.112 5.641,352.48 0,348.381 6.973,348.381 	"/>
	<polygon fill="#27A9E0" points="29.563,341.75 31.719,348.381 38.691,348.381 33.05,352.48 35.205,359.112 29.563,355.013 
		23.922,359.112 26.077,352.48 20.436,348.381 27.409,348.381 	"/>
	<polygon fill="#27A9E0" points="50,341.75 52.155,348.381 59.128,348.381 53.486,352.48 55.641,359.112 50,355.013 44.358,359.112 
		46.514,352.48 40.872,348.381 47.845,348.381 	"/>
	<polygon fill="#CECECE" points="70.436,341.75 72.591,348.381 79.564,348.381 73.923,352.48 76.077,359.112 70.436,355.013 
		64.794,359.112 66.95,352.48 61.308,348.381 68.281,348.381 	"/>
	<polygon fill="#CECECE" points="90.872,341.75 93.027,348.381 100,348.381 94.359,352.48 96.513,359.112 90.872,355.013 
		85.23,359.112 87.386,352.48 81.745,348.381 88.718,348.381 	"/>
</g>
<g>
	<polygon fill="#27A9E0" points="9.127,364.313 11.282,370.945 18.255,370.945 12.614,375.044 14.768,381.676 9.127,377.577 
		3.486,381.676 5.641,375.044 0,370.945 6.973,370.945 	"/>
	<polygon fill="#27A9E0" points="29.563,364.313 31.719,370.945 38.691,370.945 33.05,375.044 35.205,381.676 29.563,377.577 
		23.922,381.676 26.077,375.044 20.436,370.945 27.409,370.945 	"/>
	<polygon fill="#CECECE" points="50,364.313 52.155,370.945 59.128,370.945 53.486,375.044 55.641,381.676 50,377.577 
		44.358,381.676 46.514,375.044 40.872,370.945 47.845,370.945 	"/>
	<polygon fill="#CECECE" points="70.436,364.313 72.591,370.945 79.564,370.945 73.923,375.044 76.077,381.676 70.436,377.577 
		64.794,381.676 66.95,375.044 61.308,370.945 68.281,370.945 	"/>
	<polygon fill="#CECECE" points="90.872,364.313 93.027,370.945 100,370.945 94.359,375.044 96.513,381.676 90.872,377.577 
		85.23,381.676 87.386,375.044 81.745,370.945 88.718,370.945 	"/>
	<polygon fill="#27A9E0" points="50,364.313 50,377.577 44.358,381.676 46.514,375.044 40.872,370.945 47.845,370.945 	"/>
</g>
<g>
	<polygon fill="#27A9E0" points="9.127,386.878 11.282,393.509 18.255,393.509 12.614,397.608 14.768,404.24 9.127,400.141 
		3.486,404.24 5.641,397.608 0,393.509 6.973,393.509 	"/>
	<polygon fill="#27A9E0" points="29.563,386.878 31.719,393.509 38.691,393.509 33.05,397.608 35.205,404.24 29.563,400.141 
		23.922,404.24 26.077,397.608 20.436,393.509 27.409,393.509 	"/>
	<polygon fill="#CECECE" points="50,386.878 52.155,393.509 59.128,393.509 53.486,397.608 55.641,404.24 50,400.141 44.358,404.24 
		46.514,397.608 40.872,393.509 47.845,393.509 	"/>
	<polygon fill="#CECECE" points="70.436,386.878 72.591,393.509 79.564,393.509 73.923,397.608 76.077,404.24 70.436,400.141 
		64.794,404.24 66.95,397.608 61.308,393.509 68.281,393.509 	"/>
	<polygon fill="#CECECE" points="90.872,386.878 93.027,393.509 100,393.509 94.359,397.608 96.513,404.24 90.872,400.141 
		85.23,404.24 87.386,397.608 81.745,393.509 88.718,393.509 	"/>
</g>
<g>
	<polygon fill="#27A9E0" points="9.127,409.442 11.282,416.074 18.255,416.074 12.614,420.173 14.768,426.804 9.127,422.706 
		3.486,426.804 5.641,420.173 0,416.074 6.973,416.074 	"/>
	<polygon fill="#CECECE" points="29.563,409.442 31.719,416.074 38.691,416.074 33.05,420.173 35.205,426.804 29.563,422.706 
		23.922,426.804 26.077,420.173 20.436,416.074 27.409,416.074 	"/>
	<polygon fill="#CECECE" points="50,409.442 52.155,416.074 59.128,416.074 53.486,420.173 55.641,426.804 50,422.706 
		44.358,426.804 46.514,420.173 40.872,416.074 47.845,416.074 	"/>
	<polygon fill="#CECECE" points="70.436,409.442 72.591,416.074 79.564,416.074 73.923,420.173 76.077,426.804 70.436,422.706 
		64.794,426.804 66.95,420.173 61.308,416.074 68.281,416.074 	"/>
	<polygon fill="#CECECE" points="90.872,409.442 93.027,416.074 100,416.074 94.359,420.173 96.513,426.804 90.872,422.706 
		85.23,426.804 87.386,420.173 81.745,416.074 88.718,416.074 	"/>
	<polygon fill="#27A9E0" points="29.563,409.442 29.563,422.706 23.922,426.804 26.077,420.173 20.436,416.074 27.409,416.074 	"/>
</g>
<g>
	<polygon fill="#27A9E0" points="9.127,432.006 11.282,438.639 18.255,438.639 12.614,442.737 14.768,449.369 9.127,445.27 
		3.486,449.369 5.641,442.737 0,438.639 6.973,438.639 	"/>
	<polygon fill="#CECECE" points="29.563,432.006 31.719,438.639 38.691,438.639 33.05,442.737 35.205,449.369 29.563,445.27 
		23.922,449.369 26.077,442.737 20.436,438.639 27.409,438.639 	"/>
	<polygon fill="#CECECE" points="50,432.006 52.155,438.639 59.128,438.639 53.486,442.737 55.641,449.369 50,445.27 
		44.358,449.369 46.514,442.737 40.872,438.639 47.845,438.639 	"/>
	<polygon fill="#CECECE" points="70.436,432.006 72.591,438.639 79.564,438.639 73.923,442.737 76.077,449.369 70.436,445.27 
		64.794,449.369 66.95,442.737 61.308,438.639 68.281,438.639 	"/>
	<polygon fill="#CECECE" points="90.872,432.006 93.027,438.639 100,438.639 94.359,442.737 96.513,449.369 90.872,445.27 
		85.23,449.369 87.386,442.737 81.745,438.639 88.718,438.639 	"/>
</g>
<g>
	<polygon fill="#CECECE" points="9.127,454.571 11.282,461.202 18.255,461.202 12.614,465.301 14.768,471.932 9.127,467.834 
		3.486,471.932 5.641,465.301 0,461.202 6.973,461.202 	"/>
	<polygon fill="#CECECE" points="29.563,454.571 31.719,461.202 38.691,461.202 33.05,465.301 35.205,471.932 29.563,467.834 
		23.922,471.932 26.077,465.301 20.436,461.202 27.409,461.202 	"/>
	<polygon fill="#CECECE" points="50,454.571 52.155,461.202 59.128,461.202 53.486,465.301 55.641,471.932 50,467.834 
		44.358,471.932 46.514,465.301 40.872,461.202 47.845,461.202 	"/>
	<polygon fill="#CECECE" points="70.436,454.571 72.591,461.202 79.564,461.202 73.923,465.301 76.077,471.932 70.436,467.834 
		64.794,471.932 66.95,465.301 61.308,461.202 68.281,461.202 	"/>
	<polygon fill="#CECECE" points="90.872,454.571 93.027,461.202 100,461.202 94.359,465.301 96.513,471.932 90.872,467.834 
		85.23,471.932 87.386,465.301 81.745,461.202 88.718,461.202 	"/>
	<polygon fill="#27A9E0" points="9.127,454.571 9.127,467.834 3.486,471.932 5.641,465.301 0,461.202 6.973,461.202 	"/>
</g>
<g>
	<polygon fill="#CECECE" points="8.83,482.171 10.748,488.072 16.954,488.072 11.933,491.721 13.851,497.623 8.83,493.975 
		3.81,497.623 5.727,491.721 0.707,488.072 6.913,488.072 	"/>
	<polygon fill="#CECECE" points="27.018,482.171 28.936,488.072 35.142,488.072 30.121,491.721 32.039,497.623 27.018,493.975 
		21.998,497.623 23.916,491.721 18.895,488.072 25.101,488.072 	"/>
	<polygon fill="#CECECE" points="45.207,482.171 47.125,488.072 53.331,488.072 48.31,491.721 50.227,497.623 45.207,493.975 
		40.186,497.623 42.104,491.721 37.083,488.072 43.289,488.072 	"/>
	<polygon fill="#CECECE" points="63.394,482.171 65.312,488.072 71.519,488.072 66.498,491.721 68.415,497.623 63.394,493.975 
		58.374,497.623 60.292,491.721 55.271,488.072 61.477,488.072 	"/>
	<polygon fill="#CECECE" points="81.582,482.171 83.5,488.072 89.707,488.072 84.686,491.721 86.603,497.623 81.582,493.975 
		76.562,497.623 78.48,491.721 73.459,488.072 79.665,488.072 	"/>
</g>
<g>
	<polygon fill="#CECECE" points="27.018,506.527 28.936,512.43 35.142,512.43 30.121,516.078 32.039,521.98 27.018,518.332 
		21.998,521.98 23.916,516.078 18.895,512.43 25.101,512.43 	"/>
	<polygon fill="#CECECE" points="45.207,506.527 47.125,512.43 53.331,512.43 48.31,516.078 50.227,521.98 45.207,518.332 
		40.186,521.98 42.104,516.078 37.083,512.43 43.289,512.43 	"/>
	<polygon fill="#CECECE" points="63.394,506.527 65.312,512.43 71.519,512.43 66.498,516.078 68.415,521.98 63.394,518.332 
		58.374,521.98 60.292,516.078 55.271,512.43 61.477,512.43 	"/>
	<polygon fill="#CECECE" points="81.582,506.527 83.5,512.43 89.707,512.43 84.686,516.078 86.603,521.98 81.582,518.332 
		76.562,521.98 78.48,516.078 73.459,512.43 79.665,512.43 	"/>
</g>
<g>
	<polygon fill="#CECECE" points="45.207,530.885 47.125,536.786 53.331,536.786 48.31,540.435 50.227,546.337 45.207,542.688 
		40.186,546.337 42.104,540.435 37.083,536.786 43.289,536.786 	"/>
	<polygon fill="#CECECE" points="63.394,530.885 65.312,536.786 71.519,536.786 66.498,540.435 68.415,546.337 63.394,542.688 
		58.374,546.337 60.292,540.435 55.271,536.786 61.477,536.786 	"/>
	<polygon fill="#CECECE" points="81.582,530.885 83.5,536.786 89.707,536.786 84.686,540.435 86.603,546.337 81.582,542.688 
		76.562,546.337 78.48,540.435 73.459,536.786 79.665,536.786 	"/>
</g>
<g>
	<polygon fill="#CECECE" points="63.394,555.242 65.312,561.143 71.519,561.143 66.498,564.791 68.415,570.693 63.394,567.045 
		58.374,570.693 60.292,564.791 55.271,561.143 61.477,561.143 	"/>
	<polygon fill="#CECECE" points="81.582,555.242 83.5,561.143 89.707,561.143 84.686,564.791 86.603,570.693 81.582,567.045 
		76.562,570.693 78.48,564.791 73.459,561.143 79.665,561.143 	"/>
</g>
<g>
	<polygon fill="#CECECE" points="81.582,579.599 83.5,585.5 89.707,585.5 84.686,589.148 86.603,595.051 81.582,591.402 
		76.562,595.051 78.48,589.148 73.459,585.5 79.665,585.5 	"/>
</g>
<line fill="none" stroke="#000000" stroke-width="0.9761" stroke-miterlimit="10" x1="18.189" y1="602.5" x2="2.189" y2="618.501"/>
<line fill="none" stroke="#000000" stroke-width="0.9761" stroke-miterlimit="10" x1="18.189" y1="618.501" x2="2.189" y2="602.5"/>
<line fill="none" stroke="#FFFFFF" stroke-width="0.9761" stroke-miterlimit="10" x1="18.189" y1="734.5" x2="2.189" y2="750.501"/>
<line fill="none" stroke="#FFFFFF" stroke-width="0.9761" stroke-miterlimit="10" x1="18.189" y1="750.501" x2="2.189" y2="734.5"/>
<polyline fill="none" stroke="#474747" stroke-width="2.3377" stroke-linecap="round" stroke-linejoin="round" stroke-miterlimit="10" points="
	5.992,641.793 9.861,645.663 19.072,635.423 "/>
<g>
	<g>
		<g>
			<defs>
				<polygon id="SVGID_1_" points="18.072,631.802 13.494,636.673 4.039,637.246 4.039,646.414 13.923,646.414 13.923,646.104 
					19.774,639.314 20.259,652.431 -2.122,652.574 -1.262,630.942 				"/>
			</defs>
			<clipPath id="SVGID_2_">
				<use xlink:href="#SVGID_1_"  overflow="visible"/>
			</clipPath>
			
				<rect x="1.774" y="634.811" clip-path="url(#SVGID_2_)" fill="none" stroke="#6B6B6B" stroke-width="2.3377" stroke-linecap="round" stroke-linejoin="round" stroke-miterlimit="10" width="14.843" height="14.845"/>
		</g>
	</g>
</g>
<rect x="1.774" y="659.824" fill="none" stroke="#6B6B6B" stroke-width="2.3377" stroke-linecap="round" stroke-linejoin="round" stroke-miterlimit="10" width="14.843" height="14.843"/>
<polyline fill="none" stroke="#FFFFFF" stroke-width="1.9136" stroke-miterlimit="10" points="14.333,687.674 8.65,693.357 
	2.967,687.674 "/>
<circle fill="#A9A9A9" cx="9.195" cy="712.244" r="9"/>
<line fill="none" stroke="#DFDFDF" stroke-width="1.8675" stroke-miterlimit="10" x1="9.195" y1="706.214" x2="9.195" y2="718.274"/>
<line fill="none" stroke="#DFDFDF" stroke-width="1.8675" stroke-miterlimit="10" x1="15.226" y1="712.244" x2="3.165" y2="712.244"/>
<polyline fill="none" stroke="#91D5F0" stroke-width="1" stroke-miterlimit="10" points="2.249,765.174 6.142,768.836 2.249,772.5 
	"/>
</svg>
